# xmcd
#
# Track frame offsets: 
#        150
#        17719
#        35392
#        55716
#        67605
#        88978
#        103663
#        120569
#        138283
#        153359
#
# Disc length: 2379 seconds
#
# Revision: 48
# Processed by: cddbd v1.5.2PL0 Copyright (c) Steve Scherf et al.
# Submitted via: ExactAudioCopyFreeDBPlugin 1.0
#
DISCID=7609490a
DTITLE=周杰倫 - 范特西
DYEAR=2001
DGENRE=Pop
TTITLE0=愛在西元前
TTITLE1=爸 我回来了
TTITLE2=簡單愛
TTITLE3=忍者
TTITLE4=開不了口
TTITLE5=上海一九四三
TTITLE6=對不起
TTITLE7=威廉古堡
TTITLE8=雙截棍
TTITLE9=安靜
EXTD=
EXTT0=
EXTT1=
EXTT2=
EXTT3=
EXTT4=
EXTT5=
EXTT6=
EXTT7=
EXTT8=
EXTT9=
PLAYORDER=
